<?xml version="1.0" encoding="UTF-8" standalone="no"?>
<!-- Created with Inkscape (http://www.inkscape.org/) -->

<svg
   width="1280"
   height="640"
   viewBox="0 0 338.66666 169.33333"
   version="1.1"
   id="svg907"
   inkscape:version="1.2.2 (b0a8486, 2022-12-01)"
   sodipodi:docname="banner.svg"
   xmlns:inkscape="http://www.inkscape.org/namespaces/inkscape"
   xmlns:sodipodi="http://sodipodi.sourceforge.net/DTD/sodipodi-0.dtd"
   xmlns="http://www.w3.org/2000/svg"
   xmlns:svg="http://www.w3.org/2000/svg">
  <sodipodi:namedview
     id="namedview909"
     pagecolor="#ffffff"
     bordercolor="#000000"
     borderopacity="0.25"
     inkscape:showpageshadow="2"
     inkscape:pageopacity="0.0"
     inkscape:pagecheckerboard="0"
     inkscape:deskcolor="#d1d1d1"
     inkscape:document-units="mm"
     showgrid="false"
     inkscape:zoom="1.3932941"
     inkscape:cx="598.94033"
     inkscape:cy="258.38049"
     inkscape:window-width="1920"
     inkscape:window-height="1011"
     inkscape:window-x="0"
     inkscape:window-y="0"
     inkscape:window-maximized="1"
     inkscape:current-layer="layer1" />
  <defs
     id="defs904" />
  <g
     inkscape:groupmode="layer"
     id="layer4"
     inkscape:label="base">
    <rect
       style="fill:none;fill-opacity:1;stroke:#808080;stroke-width:2.87964;stroke-linecap:round;stroke-linejoin:round;stroke-dasharray:2.87964, 2.87964;stroke-dashoffset:0;stroke-opacity:1;paint-order:fill markers stroke"
       id="rect1341"
       width="192.47366"
       height="112.26186"
       x="73.096497"
       y="28.535736" />
  </g>
  <g
     inkscape:groupmode="layer"
     id="layer3"
     inkscape:label="arrows" />
  <g
     inkscape:label="objects"
     inkscape:groupmode="layer"
     id="layer1">
    <rect
       style="fill:#808080;fill-opacity:1;stroke:#808080;stroke-width:1.37705;stroke-linecap:round;stroke-linejoin:round;stroke-dasharray:1.37705, 1.37705;stroke-dashoffset:0;stroke-opacity:1;paint-order:fill markers stroke"
       id="rect234"
       width="13.278354"
       height="13.278354"
       x="-128.64731"
       y="92.30072"
       inkscape:label="rect234"
       transform="rotate(-90)" />
    <rect
       style="fill:#808080;fill-opacity:1;stroke:#808080;stroke-width:1.37705;stroke-linecap:round;stroke-linejoin:round;stroke-dasharray:1.37705, 1.37705;stroke-dashoffset:0;stroke-opacity:1;paint-order:fill markers stroke"
       id="rect903"
       width="13.278354"
       height="13.278354"
       x="-113.98888"
       y="92.30072"
       inkscape:label="rect234"
       transform="rotate(-90)" />
    <rect
       style="fill:#808080;fill-opacity:1;stroke:#808080;stroke-width:1.37705;stroke-linecap:round;stroke-linejoin:round;stroke-dasharray:1.37705, 1.37705;stroke-dashoffset:0;stroke-opacity:1;paint-order:fill markers stroke"
       id="rect905"
       width="13.278354"
       height="13.278354"
       x="-99.200272"
       y="92.30072"
       inkscape:label="rect234"
       transform="rotate(-90)" />
    <rect
       style="fill:#808080;fill-opacity:1;stroke:#808080;stroke-width:1.37705;stroke-linecap:round;stroke-linejoin:round;stroke-dasharray:1.37705, 1.37705;stroke-dashoffset:0;stroke-opacity:1;paint-order:fill markers stroke"
       id="rect907"
       width="13.278354"
       height="13.278354"
       x="-84.411636"
       y="92.30072"
       inkscape:label="rect234"
       transform="rotate(-90)" />
    <rect
       style="fill:#808080;fill-opacity:1;stroke:#808080;stroke-width:1.37705;stroke-linecap:round;stroke-linejoin:round;stroke-dasharray:1.37705, 1.37705;stroke-dashoffset:0;stroke-opacity:1;paint-order:fill markers stroke"
       id="rect909"
       width="13.278354"
       height="13.278354"
       x="-69.623016"
       y="92.30072"
       inkscape:label="rect234"
       transform="rotate(-90)" />
    <rect
       style="fill:#808080;fill-opacity:1;stroke:#808080;stroke-width:1.37705;stroke-linecap:round;stroke-linejoin:round;stroke-dasharray:1.37705, 1.37705;stroke-dashoffset:0;stroke-opacity:1;paint-order:fill markers stroke"
       id="rect911"
       width="13.278354"
       height="13.278354"
       x="-54.834381"
       y="92.30072"
       inkscape:label="rect234"
       transform="rotate(-90)" />
    <rect
       style="fill:#808080;fill-opacity:1;stroke:#808080;stroke-width:1.37705;stroke-linecap:round;stroke-linejoin:round;stroke-dasharray:1.37705, 1.37705;stroke-dashoffset:0;stroke-opacity:1;paint-order:fill markers stroke"
       id="rect913"
       width="13.278354"
       height="13.278354"
       x="-54.834381"
       y="107.08934"
       inkscape:label="rect234"
       transform="rotate(-90)" />
    <rect
       style="fill:#808080;fill-opacity:1;stroke:#808080;stroke-width:1.37705;stroke-linecap:round;stroke-linejoin:round;stroke-dasharray:1.37705, 1.37705;stroke-dashoffset:0;stroke-opacity:1;paint-order:fill markers stroke"
       id="rect915"
       width="13.278354"
       height="13.278354"
       x="-54.834381"
       y="121.87798"
       inkscape:label="rect234"
       transform="rotate(-90)" />
    <rect
       style="fill:#808080;fill-opacity:1;stroke:#808080;stroke-width:1.37705;stroke-linecap:round;stroke-linejoin:round;stroke-dasharray:1.37705, 1.37705;stroke-dashoffset:0;stroke-opacity:1;paint-order:fill markers stroke"
       id="rect917"
       width="13.278354"
       height="13.278354"
       x="-54.834381"
       y="136.6666"
       inkscape:label="rect234"
       transform="rotate(-90)" />
    <rect
       style="fill:#000000;fill-opacity:1;stroke:#808080;stroke-width:1.096;stroke-linecap:round;stroke-linejoin:round;stroke-dasharray:1.096, 1.096;stroke-dashoffset:0;stroke-opacity:1;paint-order:fill markers stroke"
       id="rect1023"
       width="4.1512098"
       height="4.1512098"
       x="-54.511826"
       y="144.69489"
       transform="rotate(-90)" />
    <rect
       style="fill:#000000;fill-opacity:1;stroke:#808080;stroke-width:1.096;stroke-linecap:round;stroke-linejoin:round;stroke-dasharray:1.096, 1.096;stroke-dashoffset:0;stroke-opacity:1;paint-order:fill markers stroke"
       id="rect1285"
       width="4.1512098"
       height="4.1512098"
       x="-46.477661"
       y="144.69489"
       transform="rotate(-90)" />
    <rect
       style="fill:#7e7e7e;fill-opacity:1;stroke:#7e7e7e;stroke-width:1.132;stroke-linecap:round;stroke-linejoin:round;stroke-dasharray:1.132, 1.132;stroke-dashoffset:0;stroke-opacity:1;paint-order:fill markers stroke"
       id="rect1368"
       width="13.731855"
       height="13.731855"
       x="219.29259"
       y="41.225143" />
    <g
       id="g3951"
       transform="matrix(-1,0,0,1,348.58142,-3.3662334)">
      <path
         style="display:inline;fill:#808080;fill-opacity:1;stroke:none;stroke-width:0.578149;stroke-dasharray:none;stroke-opacity:1"
         d="m 325.90328,161.28966 c 0,-0.5053 -0.0249,-0.96493 -0.0549,-1.02143 -0.0505,-0.0945 0.0168,-0.10123 0.82293,-0.0827 l 0.87801,0.021 -0.002,-0.14185 c -8.5e-4,-0.0781 0.0168,-3.24963 0.0398,-7.04789 l 0.0417,-6.9059 h -0.87793 -0.8779 l 0.0147,-1.85235 0.0147,-1.85238 -0.91305,0.006 -0.91308,0.006 -0.006,-1.15859 c -0.004,-0.63723 -0.004,-1.18082 8.6e-4,-1.20793 0.004,-0.0269 -0.25461,-0.044 -0.57607,-0.0374 -0.33558,0.006 -0.61121,-0.0168 -0.64721,-0.0509 -0.0381,-0.0381 -0.0614,-0.45444 -0.0598,-1.0601 0.002,-0.62607 -0.0168,-0.95199 -0.0512,-0.87544 -0.045,0.10187 -0.0545,0.10482 -0.0583,0.0168 -0.004,-0.0966 -0.15091,-0.1046 -1.90568,-0.10502 -1.36119,-1.9e-4 -1.92853,0.021 -1.99706,0.0713 -0.08,0.0598 -0.0831,0.0575 -0.019,-0.0147 0.0525,-0.059 0.0762,-0.32782 0.0762,-0.866 v -0.78052 h -3.2319 -3.23191 l 2e-5,0.77747 3e-5,0.77747 -2.04582,-0.0168 -2.04584,-0.0168 0.019,0.93155 0.019,0.93153 -0.87246,-0.0105 -0.87246,-0.0126 0.019,0.71188 0.019,0.71191 -1.23484,-0.0148 -1.23482,-0.0148 v 2.74233 2.74231 h -0.8842 -0.8842 v 6.88557 c 0,5.45142 0.0168,6.89199 0.0762,6.91632 0.061,0.0249 0.061,0.0315 0,0.0355 -0.0419,0.002 -0.0762,0.0314 -0.0762,0.064 0,0.036 0.38197,0.0571 0.97843,0.0537 0.53813,-0.002 0.98946,0.004 1.00295,0.019 0.0147,0.0148 0.0292,0.30493 0.0351,0.64769 0.006,0.41453 0.0337,0.62349 0.0795,0.62409 0.0379,5.1e-4 0.0276,0.0278 -0.0231,0.0607 -0.0602,0.0394 0.58289,0.0545 1.89038,0.0448 l 1.9818,-0.0147 0.0335,-0.76223 c 0.019,-0.41922 0.0387,-0.72792 0.0457,-0.68602 0.009,0.0572 0.25354,0.0762 0.98209,0.0762 h 0.96976 l 0.009,-0.83581 c 0.004,-0.4597 0.019,-0.84709 0.0332,-0.86084 0.0148,-0.0147 0.32685,-0.0286 0.69579,-0.0331 0.42368,-0.004 0.64946,0.0147 0.61281,0.0496 -0.0318,0.032 -0.0578,0.42289 -0.0578,0.86895 v 0.81104 h 0.91503 0.9147 l 0.006,0.59455 c 0.004,0.32699 0.0105,0.67685 0.0168,0.77746 l 0.006,0.18311 1.66384,0.0105 c 0.91512,0.006 1.70566,-0.004 1.75681,-0.0231 0.0772,-0.0295 0.0897,-0.14901 0.0739,-0.69867 l -0.019,-0.66295 1.14336,1.3e-4 1.14336,1.2e-4 v -0.73156 -0.73176 h 0.57922 0.57929 v 0.73176 c 0,0.40247 0.021,0.72851 0.0457,0.72453 0.0253,-0.004 0.36133,-0.004 0.747,-1.2e-4 l 0.70125,0.006 -0.019,0.73186 -0.019,0.73188 h 2.01592 2.0159 z m -9.19462,-11.50585 -0.0168,-0.68602 h -0.72213 c -0.39719,0 -0.80738,-0.0168 -0.91161,-0.0379 l -0.18943,-0.0378 -0.0168,-3.07206 c -0.0168,-3.03557 -0.0147,-3.07211 0.10566,-3.07663 0.067,-0.002 0.55256,-6.7e-4 1.07885,0.004 l 0.9569,0.009 0.0396,-0.21075 c 0.021,-0.11576 0.0303,-0.38868 0.019,-0.60627 -0.0147,-0.26204 0.004,-0.4196 0.0555,-0.46658 0.0478,-0.0446 0.0762,-0.0473 0.0762,-0.006 0,0.0423 0.52432,0.0634 1.57022,0.0634 l 1.57022,-9e-5 v 0.59466 0.59463 l 0.97567,0.0147 0.97566,0.0147 0.0168,3.07814 0.0168,3.07816 -0.19869,0.0371 c -0.10924,0.021 -0.61726,0.0285 -1.12875,0.019 l -0.93004,-0.019 -0.006,0.54879 c -0.004,0.30187 -0.002,0.58594 0.004,0.63132 0.0349,0.25333 0.019,0.2556 -1.68754,0.23865 l -1.63274,-0.0168 z m -10.01384,0.0168 c 0,-0.51854 -0.021,-0.70212 -0.0762,-0.70463 -0.0419,-0.002 -0.39528,-4.8e-4 -0.78524,0.002 -0.38995,0.002 -0.78121,-0.0105 -0.86951,-0.0339 l -0.16059,-0.0402 0.0168,-3.07944 0.0168,-3.07942 1.06715,-0.009 1.06712,-0.009 0.019,-0.59259 0.0168,-0.59257 1.58927,-0.0168 c 0.87408,-0.009 1.61605,-6.3e-4 1.64882,0.019 0.0342,0.021 0.0512,0.27451 0.0398,0.59403 -0.0168,0.44789 -0.002,0.56386 0.0703,0.5915 0.0495,0.019 0.4964,0.0286 0.99311,0.021 l 0.90315,-0.0105 -0.002,3.07067 c -0.002,2.36194 -0.021,3.08228 -0.0783,3.12105 -0.0414,0.0278 -0.54163,0.0442 -1.11181,0.0368 l -1.03662,-0.0147 -0.0168,0.71327 -0.0168,0.7133 h -1.64453 -1.64451 v -0.70128 z"
         id="path3945"
         sodipodi:nodetypes="csscccccccccccscsccccssscccccccccccccccccccsscscsccsccscscccscscccccccsscccccccsccccccccccsscsccccscscccccccccscccccccscccccccccscsccccscccccccc" />
      <rect
         style="display:inline;fill:#808080;fill-opacity:1;stroke:none;stroke-width:0.578149;stroke-linecap:round;stroke-linejoin:round;stroke-dasharray:none;stroke-dashoffset:0;stroke-opacity:1;paint-order:fill markers stroke"
         id="rect3947"
         width="2.5578644"
         height="4.0856118"
         x="-318.21658"
         y="144.15843"
         transform="scale(-1,1)" />
      <rect
         style="display:inline;fill:#808080;fill-opacity:1;stroke:none;stroke-width:0.578149;stroke-linecap:round;stroke-linejoin:round;stroke-dasharray:none;stroke-dashoffset:0;stroke-opacity:1;paint-order:fill markers stroke"
         id="rect3949"
         width="2.6221089"
         height="4.0856118"
         x="-308.2193"
         y="144.15843"
         transform="scale(-1,1)" />
    </g>
    <g
       id="g3938"
       transform="translate(-7.1241309,-3.3662334)">
      <path
         style="display:inline;fill:#808080;fill-opacity:1;stroke:none;stroke-width:0.578149;stroke-dasharray:none;stroke-opacity:1"
         d="m 325.90328,161.28966 c 0,-0.5053 -0.0249,-0.96493 -0.0549,-1.02143 -0.0505,-0.0945 0.0168,-0.10123 0.82293,-0.0827 l 0.87801,0.021 -0.002,-0.14185 c -8.5e-4,-0.0781 0.0168,-3.24963 0.0398,-7.04789 l 0.0417,-6.9059 h -0.87793 -0.8779 l 0.0147,-1.85235 0.0147,-1.85238 -0.91305,0.006 -0.91308,0.006 -0.006,-1.15859 c -0.004,-0.63723 -0.004,-1.18082 8.6e-4,-1.20793 0.004,-0.0269 -0.25461,-0.044 -0.57607,-0.0374 -0.33558,0.006 -0.61121,-0.0168 -0.64721,-0.0509 -0.0381,-0.0381 -0.0614,-0.45444 -0.0598,-1.0601 0.002,-0.62607 -0.0168,-0.95199 -0.0512,-0.87544 -0.045,0.10187 -0.0545,0.10482 -0.0583,0.0168 -0.004,-0.0966 -0.15091,-0.1046 -1.90568,-0.10502 -1.36119,-1.9e-4 -1.92853,0.021 -1.99706,0.0713 -0.08,0.0598 -0.0831,0.0575 -0.019,-0.0147 0.0525,-0.059 0.0762,-0.32782 0.0762,-0.866 v -0.78052 h -3.2319 -3.23191 l 2e-5,0.77747 3e-5,0.77747 -2.04582,-0.0168 -2.04584,-0.0168 0.019,0.93155 0.019,0.93153 -0.87246,-0.0105 -0.87246,-0.0126 0.019,0.71188 0.019,0.71191 -1.23484,-0.0148 -1.23482,-0.0148 v 2.74233 2.74231 h -0.8842 -0.8842 v 6.88557 c 0,5.45142 0.0168,6.89199 0.0762,6.91632 0.061,0.0249 0.061,0.0315 0,0.0355 -0.0419,0.002 -0.0762,0.0314 -0.0762,0.064 0,0.036 0.38197,0.0571 0.97843,0.0537 0.53813,-0.002 0.98946,0.004 1.00295,0.019 0.0147,0.0148 0.0292,0.30493 0.0351,0.64769 0.006,0.41453 0.0337,0.62349 0.0795,0.62409 0.0379,5.1e-4 0.0276,0.0278 -0.0231,0.0607 -0.0602,0.0394 0.58289,0.0545 1.89038,0.0448 l 1.9818,-0.0147 0.0335,-0.76223 c 0.019,-0.41922 0.0387,-0.72792 0.0457,-0.68602 0.009,0.0572 0.25354,0.0762 0.98209,0.0762 h 0.96976 l 0.009,-0.83581 c 0.004,-0.4597 0.019,-0.84709 0.0332,-0.86084 0.0148,-0.0147 0.32685,-0.0286 0.69579,-0.0331 0.42368,-0.004 0.64946,0.0147 0.61281,0.0496 -0.0318,0.032 -0.0578,0.42289 -0.0578,0.86895 v 0.81104 h 0.91503 0.9147 l 0.006,0.59455 c 0.004,0.32699 0.0105,0.67685 0.0168,0.77746 l 0.006,0.18311 1.66384,0.0105 c 0.91512,0.006 1.70566,-0.004 1.75681,-0.0231 0.0772,-0.0295 0.0897,-0.14901 0.0739,-0.69867 l -0.019,-0.66295 1.14336,1.3e-4 1.14336,1.2e-4 v -0.73156 -0.73176 h 0.57922 0.57929 v 0.73176 c 0,0.40247 0.021,0.72851 0.0457,0.72453 0.0253,-0.004 0.36133,-0.004 0.747,-1.2e-4 l 0.70125,0.006 -0.019,0.73186 -0.019,0.73188 h 2.01592 2.0159 z m -9.19462,-11.50585 -0.0168,-0.68602 h -0.72213 c -0.39719,0 -0.80738,-0.0168 -0.91161,-0.0379 l -0.18943,-0.0378 -0.0168,-3.07206 c -0.0168,-3.03557 -0.0147,-3.07211 0.10566,-3.07663 0.067,-0.002 0.55256,-6.7e-4 1.07885,0.004 l 0.9569,0.009 0.0396,-0.21075 c 0.021,-0.11576 0.0303,-0.38868 0.019,-0.60627 -0.0147,-0.26204 0.004,-0.4196 0.0555,-0.46658 0.0478,-0.0446 0.0762,-0.0473 0.0762,-0.006 0,0.0423 0.52432,0.0634 1.57022,0.0634 l 1.57022,-9e-5 v 0.59466 0.59463 l 0.97567,0.0147 0.97566,0.0147 0.0168,3.07814 0.0168,3.07816 -0.19869,0.0371 c -0.10924,0.021 -0.61726,0.0285 -1.12875,0.019 l -0.93004,-0.019 -0.006,0.54879 c -0.004,0.30187 -0.002,0.58594 0.004,0.63132 0.0349,0.25333 0.019,0.2556 -1.68754,0.23865 l -1.63274,-0.0168 z m -10.01384,0.0168 c 0,-0.51854 -0.021,-0.70212 -0.0762,-0.70463 -0.0419,-0.002 -0.39528,-4.8e-4 -0.78524,0.002 -0.38995,0.002 -0.78121,-0.0105 -0.86951,-0.0339 l -0.16059,-0.0402 0.0168,-3.07944 0.0168,-3.07942 1.06715,-0.009 1.06712,-0.009 0.019,-0.59259 0.0168,-0.59257 1.58927,-0.0168 c 0.87408,-0.009 1.61605,-6.3e-4 1.64882,0.019 0.0342,0.021 0.0512,0.27451 0.0398,0.59403 -0.0168,0.44789 -0.002,0.56386 0.0703,0.5915 0.0495,0.019 0.4964,0.0286 0.99311,0.021 l 0.90315,-0.0105 -0.002,3.07067 c -0.002,2.36194 -0.021,3.08228 -0.0783,3.12105 -0.0414,0.0278 -0.54163,0.0442 -1.11181,0.0368 l -1.03662,-0.0147 -0.0168,0.71327 -0.0168,0.7133 h -1.64453 -1.64451 v -0.70128 z"
         id="path3873"
         sodipodi:nodetypes="csscccccccccccscsccccssscccccccccccccccccccsscscsccsccscscccscscccccccsscccccccsccccccccccsscsccccscscccccccccscccccccscccccccccscsccccscccccccc" />
      <rect
         style="display:inline;fill:#808080;fill-opacity:1;stroke:none;stroke-width:0.578149;stroke-linecap:round;stroke-linejoin:round;stroke-dasharray:none;stroke-dashoffset:0;stroke-opacity:1;paint-order:fill markers stroke"
         id="rect3875"
         width="2.5578644"
         height="4.0856118"
         x="-318.21658"
         y="144.15843"
         transform="scale(-1,1)" />
      <rect
         style="display:inline;fill:#808080;fill-opacity:1;stroke:none;stroke-width:0.578149;stroke-linecap:round;stroke-linejoin:round;stroke-dasharray:none;stroke-dashoffset:0;stroke-opacity:1;paint-order:fill markers stroke"
         id="rect3877"
         width="2.6221089"
         height="4.0856118"
         x="-308.2193"
         y="144.15843"
         transform="scale(-1,1)" />
    </g>
    <rect
       style="fill:#808080;fill-opacity:1;stroke:#808080;stroke-width:1.37705;stroke-linecap:round;stroke-linejoin:round;stroke-dasharray:1.37705, 1.37705;stroke-dashoffset:0;stroke-opacity:1;paint-order:fill markers stroke"
       id="rect4022"
       width="13.278354"
       height="13.278354"
       x="-128.64731"
       y="107.06196"
       inkscape:label="rect234"
       transform="rotate(-90)" />
    <rect
       style="fill:#808080;fill-opacity:1;stroke:#808080;stroke-width:1.37705;stroke-linecap:round;stroke-linejoin:round;stroke-dasharray:1.37705, 1.37705;stroke-dashoffset:0;stroke-opacity:1;paint-order:fill markers stroke"
       id="rect4024"
       width="13.278354"
       height="13.278354"
       x="-128.64731"
       y="121.8232"
       inkscape:label="rect234"
       transform="rotate(-90)" />
    <rect
       style="fill:#808080;fill-opacity:1;stroke:#808080;stroke-width:1.37705;stroke-linecap:round;stroke-linejoin:round;stroke-dasharray:1.37705, 1.37705;stroke-dashoffset:0;stroke-opacity:1;paint-order:fill markers stroke"
       id="rect4026"
       width="13.278354"
       height="13.278354"
       x="-128.64731"
       y="136.58443"
       inkscape:label="rect234"
       transform="rotate(-90)" />
    <rect
       style="fill:#808080;fill-opacity:1;stroke:#808080;stroke-width:1.37705;stroke-linecap:round;stroke-linejoin:round;stroke-dasharray:1.37705, 1.37705;stroke-dashoffset:0;stroke-opacity:1;paint-order:fill markers stroke"
       id="rect4028"
       width="13.278354"
       height="13.278354"
       x="-113.88607"
       y="136.51096"
       inkscape:label="rect234"
       transform="rotate(-90)" />
    <rect
       style="fill:#808080;fill-opacity:1;stroke:#808080;stroke-width:1.37705;stroke-linecap:round;stroke-linejoin:round;stroke-dasharray:1.37705, 1.37705;stroke-dashoffset:0;stroke-opacity:1;paint-order:fill markers stroke"
       id="rect4030"
       width="13.278354"
       height="13.278354"
       x="-99.124832"
       y="136.51096"
       inkscape:label="rect234"
       transform="rotate(-90)" />
    <rect
       style="fill:#808080;fill-opacity:1;stroke:#808080;stroke-width:1.37705;stroke-linecap:round;stroke-linejoin:round;stroke-dasharray:1.37705, 1.37705;stroke-dashoffset:0;stroke-opacity:1;paint-order:fill markers stroke"
       id="rect4032"
       width="13.278354"
       height="13.278354"
       x="-99.124832"
       y="151.27219"
       inkscape:label="rect234"
       transform="rotate(-90)" />
    <rect
       style="fill:#808080;fill-opacity:1;stroke:#808080;stroke-width:1.37705;stroke-linecap:round;stroke-linejoin:round;stroke-dasharray:1.37705, 1.37705;stroke-dashoffset:0;stroke-opacity:1;paint-order:fill markers stroke"
       id="rect4034"
       width="13.278354"
       height="13.278354"
       x="-99.124832"
       y="166.03343"
       inkscape:label="rect234"
       transform="rotate(-90)" />
    <rect
       style="fill:#808080;fill-opacity:1;stroke:#808080;stroke-width:1.37705;stroke-linecap:round;stroke-linejoin:round;stroke-dasharray:1.37705, 1.37705;stroke-dashoffset:0;stroke-opacity:1;paint-order:fill markers stroke"
       id="rect4036"
       width="13.278354"
       height="13.278354"
       x="-99.124832"
       y="180.79466"
       inkscape:label="rect234"
       transform="rotate(-90)" />
    <rect
       style="fill:#808080;fill-opacity:1;stroke:#808080;stroke-width:1.37705;stroke-linecap:round;stroke-linejoin:round;stroke-dasharray:1.37705, 1.37705;stroke-dashoffset:0;stroke-opacity:1;paint-order:fill markers stroke"
       id="rect4038"
       width="13.278354"
       height="13.278354"
       x="-99.124832"
       y="195.55591"
       inkscape:label="rect234"
       transform="rotate(-90)" />
    <rect
       style="fill:#808080;fill-opacity:1;stroke:#808080;stroke-width:1.37705;stroke-linecap:round;stroke-linejoin:round;stroke-dasharray:1.37705, 1.37705;stroke-dashoffset:0;stroke-opacity:1;paint-order:fill markers stroke"
       id="rect4040"
       width="13.278354"
       height="13.278354"
       x="-99.124832"
       y="210.31714"
       inkscape:label="rect234"
       transform="rotate(-90)" />
    <rect
       style="fill:#808080;fill-opacity:1;stroke:#808080;stroke-width:1.37705;stroke-linecap:round;stroke-linejoin:round;stroke-dasharray:1.37705, 1.37705;stroke-dashoffset:0;stroke-opacity:1;paint-order:fill markers stroke"
       id="rect4042"
       width="13.278354"
       height="13.278354"
       x="-99.124832"
       y="225.07838"
       inkscape:label="rect234"
       transform="rotate(-90)" />
    <rect
       style="fill:#808080;fill-opacity:1;stroke:#808080;stroke-width:1.37705;stroke-linecap:round;stroke-linejoin:round;stroke-dasharray:1.37705, 1.37705;stroke-dashoffset:0;stroke-opacity:1;paint-order:fill markers stroke"
       id="rect4044"
       width="13.278354"
       height="13.278354"
       x="-99.124832"
       y="239.83961"
       inkscape:label="rect234"
       transform="rotate(-90)" />
  </g>
  <g
     inkscape:groupmode="layer"
     id="layer2"
     inkscape:label="text">
    <text
       xml:space="preserve"
       style="font-weight:800;font-size:20.8525px;font-family:'JetBrains Mono';-inkscape-font-specification:'JetBrains Mono Ultra-Bold';fill:#7e7e7e;fill-opacity:1;stroke:#7f7f7f;stroke-width:0.814138;stroke-linecap:round;stroke-linejoin:round;stroke-dasharray:0.814138, 0.814138;stroke-dashoffset:0;stroke-opacity:1;paint-order:fill markers stroke"
       x="172.30101"
       y="125.209"
       id="text3320"><tspan
         sodipodi:role="line"
         id="tspan3318"
         style="fill:#7e7e7e;fill-opacity:1;stroke:#7f7f7f;stroke-width:0.814138;stroke-dasharray:0.814138, 0.814138;stroke-dashoffset:0;stroke-opacity:1"
         x="172.30101"
         y="125.209">CNAKE</tspan></text>
  </g>
</svg>
